<svg xmlns="http://www.w3.org/2000/svg" width="178" height="163.801" viewBox="0 0 178 163.801">
  <g id="Grupo_4" data-name="Grupo 4" transform="translate(0 0.01)">
    <path id="Caminho_9" data-name="Caminho 9" d="M81.4,67.42c7.483,4.288,14.663,8.4,21.843,12.519q30.6,17.55,61.2,35.11,5.931,3.4,11.791,6.907a2,2,0,0,1,.819,1.416q.061,19.477.03,38.943c0,.172-.03.344-.061.718-1.274-.678-2.478-1.264-3.64-1.931q-33.735-19.34-67.47-38.7c-1.861-1.072-3.762-2.063-5.612-3.145-6.078-3.56-12.155-7.119-18.2-10.739a1.87,1.87,0,0,1-.566-1.406c-.051-8.555-.051-17.1-.061-25.655q-.015-6.249-.051-12.5C81.4,68.522,81.4,68.108,81.4,67.42Z" transform="translate(0.915 0.758)" fill="#fff"/>
    <path id="Caminho_10" data-name="Caminho 10" d="M.121,20.38c25.17,13.915,49.6,28.669,74.66,42.887a11.244,11.244,0,0,1-1.669,1.628C64.406,69.971,55.679,75,46.962,80.043c-1.557.9-3.155,1.739-4.631,2.751a4.2,4.2,0,0,1-5-.01c-8.282-4.844-16.594-9.627-24.9-14.441C8.616,66.118,4.8,63.863.971,61.649A1.557,1.557,0,0,1,0,60.152Q.046,40.676.03,21.2C.03,21.068.061,20.936.121,20.38Z" transform="translate(0 0.229)" fill="#fff"/>
    <path id="Caminho_11" data-name="Caminho 11" d="M21.1,140.556v-1.7c-.01-12.59,0-25.18-.051-37.76a2.128,2.128,0,0,1,1.213-2.164Q44.516,86.115,66.738,73.217c2.619-1.517,5.2-3.094,7.807-4.621.819-.475,1.679-.87,2.7-1.4.04.647.091,1.062.091,1.487q.046,19.2.111,38.417a1.632,1.632,0,0,1-.88,1.679q-25.013,14.365-49.986,28.79C24.852,138.573,23.083,139.484,21.1,140.556Z" transform="translate(0.237 0.756)" fill="#fff"/>
    <path id="Caminho_12" data-name="Caminho 12" d="M137.3,32.893v1.173q-.015,19.143,0,38.3a1.8,1.8,0,0,1-1.1,1.81c-4.894,2.821-9.779,5.673-14.612,8.606a4.411,4.411,0,0,1-4.925-.091q-11.316-6.553-22.642-13.1c-3.367-1.962-6.694-3.984-10.325-6.148,17.929-10.385,35.586-20.619,53.242-30.853Q137.129,32.742,137.3,32.893Z" transform="translate(0.941 0.367)" fill="#fff"/>
    <path id="Caminho_13" data-name="Caminho 13" d="M133.266,29.458c-3.8,2.306-7.291,4.48-10.83,6.563-7.463,4.409-14.956,8.778-22.419,13.187a3.526,3.526,0,0,1-3.944.04c-4.561-2.7-9.172-5.309-13.733-8.019a1.932,1.932,0,0,1-.89-1.365Q81.4,20.19,81.46.526a3.043,3.043,0,0,1,.121-.536C98.732,9.779,115.843,19.527,133.266,29.458Z" transform="translate(0.916)" fill="#fff"/>
  </g>
</svg>
